<svg width="2221" height="1935" viewBox="0 0 2221 1935" fill="none" xmlns="http://www.w3.org/2000/svg">
<path d="M45.7435 1935H2174.51C2209.69 1935 2231.7 1896.9 2214.11 1866.43L1149.72 22.852C1132.13 -7.61732 1088.16 -7.61732 1070.53 22.852L6.18766 1866.43C-11.402 1896.9 10.6059 1935 45.7852 1935H45.7435Z" fill="url(#paint0_linear_1325_164)"/>
<path d="M805.516 655.121C904.886 631.612 1010.63 631.112 1108.08 663.499C1255.3 712.433 1371.26 821.889 1464.96 941.932C1563.33 1067.94 1643.28 1206.19 1728.39 1341.12C1748.4 1372.84 1768.78 1404.39 1790 1435.32C1800.71 1450.95 1811.67 1466.45 1822.92 1481.67C1826.55 1486.54 1830.22 1491.42 1833.89 1496.26C1835.14 1497.88 1838.1 1501.76 1838.68 1502.47C1841.35 1505.84 1844.01 1509.18 1846.68 1512.51C1894.87 1572.03 1946.68 1629.43 1998.78 1685.49C2059.05 1750.35 2125.74 1816.12 2194.81 1864.18C2202.6 1869.6 2211.06 1875.18 2219.82 1880.69C2218.9 1875.85 2217.23 1871.02 2214.52 1866.35L1150.18 22.852C1132.59 -7.61732 1088.62 -7.61732 1070.99 22.852L683.723 693.635C723.945 679.63 763.876 664.958 805.516 655.121Z" fill="url(#paint1_linear_1325_164)"/>
<path d="M1905.7 1738.05C1855.81 1683.24 1805.25 1627.85 1759.69 1569.37C1713.88 1510.55 1672.82 1448.45 1633.19 1385.34C1591.63 1319.19 1551.41 1252.25 1509.35 1186.4C1468.46 1122.37 1420.23 1051.39 1378.8 999.746C1332.87 942.517 1282.27 887.956 1224.25 842.731C1222.5 841.481 1214.91 835.77 1213.87 835.02C1210.12 832.311 1206.32 829.601 1202.49 826.975C1196.15 822.599 1189.73 818.306 1183.23 814.179C1169.02 805.134 1154.43 796.673 1139.51 788.962C1130 784.043 1120.38 779.583 1110.66 775.165C1109.87 774.79 1109.21 774.498 1108.66 774.248C1108 773.998 1107.25 773.748 1106.25 773.373C1103.37 772.289 1100.58 771.164 1097.7 770.08C1081.9 764.161 1065.81 759.034 1049.52 754.866C1039.01 752.157 1028.38 749.823 1017.67 747.864C1014.84 747.364 998.832 745.071 1000.75 745.154C983.035 743.195 965.278 741.987 947.439 742.112C896.17 742.445 849.57 750.073 799.802 764.453C747.7 779.5 697.641 801.175 645.372 815.346C633.117 818.681 620.78 821.515 608.4 824.225L455.47 1089.07C597.688 1075.15 739.947 1053.06 880.873 1088.44C1157.6 1158.01 1357.38 1381.76 1551.99 1574.62C1650.48 1672.24 1749.19 1762.94 1868.35 1831.75C1921.08 1862.22 1975.22 1887.15 2030.12 1912.16C2057.21 1924.5 2086.18 1932.21 2115.78 1935C2038.79 1877.31 1970.35 1809.08 1905.7 1738.05Z" fill="url(#paint2_linear_1325_164)"/>
<path d="M1770.03 1893.99C1541.86 1745.22 1379.35 1522.1 1167.19 1354.42C1120.67 1317.65 1061.4 1278.51 1004.71 1248.92C941.438 1215.87 875.039 1189.15 802.18 1178.81C665.964 1159.51 528.832 1187.9 392.283 1198.4L237.06 1467.29C240.478 1467.12 243.896 1467 247.314 1466.79C316.88 1462.16 386.072 1453.33 455.93 1456.87C516.994 1459.95 578.016 1470.33 636.287 1489.01C838.151 1553.78 997.583 1700.54 1172.19 1814.29C1242.88 1860.35 1315.28 1901.03 1390.27 1935H1837.26C1814.46 1921.91 1791.99 1908.32 1770.03 1893.99Z" fill="url(#paint3_linear_1325_164)"/>
<path d="M1074.99 1874.52C909.342 1761.56 750.535 1618.55 551.297 1573.87C435.714 1547.94 320.089 1570.03 203.005 1573.12C193.918 1573.37 184.873 1573.41 175.829 1573.37L6.64273 1866.43C-10.9469 1896.9 11.061 1935 46.2403 1935H1168.77C1137.01 1915.66 1105.79 1895.44 1075.03 1874.52H1074.99Z" fill="url(#paint4_linear_1325_164)"/>
<defs>
<linearGradient id="paint0_linear_1325_164" x1="401.33" y1="819.305" x2="2003.78" y2="2163.91" gradientUnits="userSpaceOnUse">
<stop offset="0.18" stop-color="#0E9896"/>
<stop offset="0.31" stop-color="#0B7472"/>
<stop offset="0.44" stop-color="#085756"/>
<stop offset="0.56" stop-color="#064342"/>
<stop offset="0.69" stop-color="#053736"/>
<stop offset="0.82" stop-color="#053332"/>
</linearGradient>
<linearGradient id="paint1_linear_1325_164" x1="952.611" y1="1270.26" x2="1760.98" y2="893.331" gradientUnits="userSpaceOnUse">
<stop offset="0.4" stop-color="#4B1521"/>
<stop offset="0.46" stop-color="#511A23"/>
<stop offset="0.53" stop-color="#622929"/>
<stop offset="0.61" stop-color="#7E4233"/>
<stop offset="0.7" stop-color="#A66542"/>
<stop offset="0.79" stop-color="#D89154"/>
<stop offset="0.82" stop-color="#E59C59"/>
</linearGradient>
<linearGradient id="paint2_linear_1325_164" x1="890.21" y1="1710" x2="1606.84" y2="1208.2" gradientUnits="userSpaceOnUse">
<stop offset="0.4" stop-color="#4B1521"/>
<stop offset="0.46" stop-color="#501922"/>
<stop offset="0.53" stop-color="#5F2628"/>
<stop offset="0.6" stop-color="#783C31"/>
<stop offset="0.68" stop-color="#9A5B3E"/>
<stop offset="0.77" stop-color="#C7814E"/>
<stop offset="0.82" stop-color="#E59C59"/>
</linearGradient>
<linearGradient id="paint3_linear_1325_164" x1="648.708" y1="1957.8" x2="1357.42" y2="1363.13" gradientUnits="userSpaceOnUse">
<stop offset="0.4" stop-color="#4B1521"/>
<stop offset="0.46" stop-color="#501922"/>
<stop offset="0.53" stop-color="#5F2628"/>
<stop offset="0.6" stop-color="#783C31"/>
<stop offset="0.68" stop-color="#9A5B3E"/>
<stop offset="0.77" stop-color="#C7814E"/>
<stop offset="0.82" stop-color="#E59C59"/>
</linearGradient>
<linearGradient id="paint4_linear_1325_164" x1="259.359" y1="2167.12" x2="830.106" y2="1596.38" gradientUnits="userSpaceOnUse">
<stop offset="0.4" stop-color="#4B1521"/>
<stop offset="0.46" stop-color="#501922"/>
<stop offset="0.53" stop-color="#5F2628"/>
<stop offset="0.6" stop-color="#783C31"/>
<stop offset="0.68" stop-color="#9A5B3E"/>
<stop offset="0.77" stop-color="#C7814E"/>
<stop offset="0.82" stop-color="#E59C59"/>
</linearGradient>
</defs>
</svg>
