<svg width="3050" height="3050" viewBox="0 0 3050 3050" fill="none" xmlns="http://www.w3.org/2000/svg">
<mask id="path-1-inside-1_1325_171" fill="white">
<circle cx="1525" cy="1525" r="1525"/>
</mask>
<path d="M3050 1525C3041.22 1684.95 3007.92 1841.72 2951.8 1988.64C2731.33 2582.81 2125.4 2977.21 1525 2950.62C766.076 2944.09 115.539 2264.45 132.5 1525C115.539 785.552 766.077 105.907 1525 99.375C2125.4 72.7885 2731.33 467.19 2951.8 1061.36C3007.92 1208.28 3041.22 1365.05 3050 1525C3058.89 1365.08 3042.34 1202.72 2999.68 1045.81C2837.25 411.904 2212.48 -91.8181 1525 -99.375C659.307 -145.41 -155.042 639.831 -132.5 1525C-132.5 1525 -132.5 1525 -132.5 1525C-155.042 2410.17 659.307 3195.41 1525 3149.38C2212.48 3141.82 2837.25 2638.1 2999.68 2004.19C3042.34 1847.28 3058.9 1684.92 3050 1525Z" fill="url(#paint0_linear_1325_171)" mask="url(#path-1-inside-1_1325_171)"/>
<defs>
<linearGradient id="paint0_linear_1325_171" x1="3050" y1="1525" x2="0" y2="1525" gradientUnits="userSpaceOnUse">
<stop stop-color="#053332" stop-opacity="0"/>
<stop offset="0.00187901" stop-color="#053332"/>
<stop offset="1" stop-color="#0F9997"/>
</linearGradient>
</defs>
</svg>
